# File created by Blade
# Date/Time:  Wed Jan 21 17:10:37 2015
# Frame Rate: 120.000 fps
#------------------------------------------------------
:FULLY-SPECIFIED
:DEGREES
1041
root 19.555645 3.462140 -11.642516 -239.871434 3.270548 -182.965999
Spine 57.724101 4.098814 -1.849002
Head -0.942369 1.123115 6.215669
LeftShoulder 4.308428 -26.742534 -1.012096
LeftArm 29.219197 39.407112 -32.752321
LeftForeArm -16.086617 -0.000000 69.174292
LeftHand -14.726582 -0.000000 -5.492139
LeftHandThumb1 -26.253704 0.000000 33.147579
RightShoulder 5.237679 2.127429 -17.670849
RightArm 37.792897 13.150366 19.555821
RightForeArm -14.086717 -0.000000 76.130784
RightHand 1.419846 -0.000000 16.980282
RightHandThumb1 -24.326973 -0.000000 -32.862282
LeftUpLeg -30.330909 28.644942 -0.027744
LeftLeg -1.359550 -0.000000 0.000000
LeftFoot 20.083438 34.602350 -0.038722
LeftToeBase 17.843567 -0.000000 -0.000000
RightUpLeg -97.554802 -1.716899 8.009861
RightLeg 124.780608 -0.000000 -0.000000
RightFoot 17.243031 -32.360366 -7.760956
RightToeBase 11.784342 -0.000000 -0.000000
1042
root 19.557429 3.459641 -11.644071 -239.799135 3.293945 -182.854203
Spine 57.865258 4.044922 -1.715633
Head -0.995891 1.033862 6.041307
LeftShoulder 3.773868 -26.595815 -0.775576
LeftArm 27.652193 38.016913 -32.924407
LeftForeArm -15.185448 -0.000000 71.044042
LeftHand -14.945941 -0.000000 -5.151319
LeftHandThumb1 -26.253704 0.000000 33.147579
RightShoulder 5.048877 1.573342 -17.231314
RightArm 36.697166 14.274923 21.042917
RightForeArm -14.208198 -0.000000 76.981845
RightHand 1.036518 -0.000000 16.817335
RightHandThumb1 -24.326973 -0.000000 -32.862282
LeftUpLeg -30.406636 28.389025 0.096251
LeftLeg -1.285115 -0.000000 0.000000
LeftFoot 20.112345 34.550287 0.147081
LeftToeBase 17.820006 -0.000000 -0.000000
RightUpLeg -97.532966 -1.631421 7.534269
RightLeg 125.216607 -0.000000 -0.000000
RightFoot 16.414333 -32.451043 -7.784384
RightToeBase 12.154096 -0.000000 -0.000000
1043
root 19.554188 3.459542 -11.644202 -239.728598 3.287673 -182.763897
Spine 58.024446 4.037193 -1.556771
Head -1.025139 0.891925 5.894904
LeftShoulder 3.360312 -26.447902 -0.592041
LeftArm 26.030493 36.613504 -33.109421
LeftForeArm -14.057259 -0.000000 72.894798
LeftHand -15.126269 -0.000000 -4.785136
LeftHandThumb1 -26.253704 0.000000 33.147579
RightShoulder 4.745403 1.070051 -16.782753
RightArm 35.687824 15.359404 22.714124
RightForeArm -14.150071 -0.000000 77.684690
RightHand 0.853619 -0.000000 16.471723
RightHandThumb1 -24.326973 -0.000000 -32.862282
LeftUpLeg -30.426525 28.070523 0.215930
LeftLeg -1.274261 -0.000000 0.000000
LeftFoot 20.199888 34.507010 0.306713
LeftToeBase 17.702421 -0.000000 -0.000000
RightUpLeg -97.540654 -1.542992 7.007842
RightLeg 125.668468 -0.000000 -0.000000
RightFoot 15.386941 -32.564214 -7.562366
RightToeBase 12.043834 -0.000000 -0.000000
1044
root 19.553762 3.455712 -11.644603 -239.620950 3.299267 -182.644303
Spine 58.162423 4.035950 -1.313946
Head -1.042217 0.695976 5.731329
LeftShoulder 3.010070 -26.301749 -0.431502
LeftArm 24.325506 35.164618 -33.426872
LeftForeArm -12.722562 -0.000000 74.667151
LeftHand -15.322025 -0.000000 -4.223993
LeftHandThumb1 -26.253704 0.000000 33.147579
RightShoulder 4.401392 0.732368 -16.314150
RightArm 34.577222 16.318743 24.405094
RightForeArm -13.987969 -0.000000 78.466970
RightHand 0.402609 0.000000 15.958921
RightHandThumb1 -24.326973 -0.000000 -32.862282
LeftUpLeg -30.554177 27.799194 0.294079
LeftLeg -1.205244 -0.000000 0.000000
LeftFoot 20.212983 34.403790 0.375917
LeftToeBase 17.635213 -0.000000 -0.000000
RightUpLeg -97.602950 -1.457784 6.623294
RightLeg 126.139270 -0.000000 -0.000000
RightFoot 14.529204 -32.749321 -7.659340
RightToeBase 11.998975 -0.000000 -0.000000
1045
root 19.554968 3.450671 -11.645556 -239.483760 3.336431 -182.556631
Spine 58.263363 4.068698 -1.108410
Head -1.010722 0.501489 5.598923
LeftShoulder 2.633457 -26.134046 -0.285713
LeftArm 22.606525 33.664819 -33.738542
LeftForeArm -11.406921 -0.000000 76.423199
LeftHand -15.507606 0.000000 -3.730428
LeftHandThumb1 -26.253704 0.000000 33.147579
RightShoulder 4.061787 0.308872 -15.802403
RightArm 33.487410 17.268021 25.911321
RightForeArm -13.398620 -0.000000 79.166959
RightHand 0.046632 -0.000000 15.089853
RightHandThumb1 -24.326973 -0.000000 -32.862282
LeftUpLeg -30.662006 27.455457 0.454277
LeftLeg -1.146691 -0.000000 0.000000
LeftFoot 20.247737 34.343804 0.425105
LeftToeBase 17.549696 -0.000000 -0.000000
RightUpLeg -97.702749 -1.353710 6.217782
RightLeg 126.622210 -0.000000 -0.000000
RightFoot 13.598287 -32.693715 -7.729001
RightToeBase 12.292067 -0.000000 -0.000000
